OpenSim_Sub08_CSStiffKnee_GRF.mot
version=1
nRows=58
nColumns=19
inDegrees=no
endheader
time	lFx	lFy	lFz	lCOPx	lCOPy	lCOPz	rFx	rFy	rFz	rCOPx	rCOPy	rCOPz	lMx	lMy	lMz	rMx	rMy	rMz
26.41000000	0.05309929	-2.25222995	-4.14444102	-0.02188121	0	0.01469737	1.33434653	507.52511540	-56.09804027	0.65248049	0	-0.39686040	0	0.06397449	0	0	2.09092352	0
26.42000000	-0.49038054	-3.62792154	-4.12491803	-0.02988773	0	0.02060366	3.08261205	514.53451290	-56.27744496	0.64657742	0	-0.39636502	0	0.03353684	0	0	2.43578794	0
26.43000000	-1.29328562	-3.39272540	-3.89011546	-0.00845154	0	0.00729308	4.79901793	520.98908749	-56.19449570	0.64100163	0	-0.39581843	0	-0.13999908	0	0	2.77257730	0
26.44000000	-1.71213656	2.39229339	-3.33962626	0.08747863	0	-0.05581808	6.68016789	526.57536596	-55.95141836	0.63560782	0	-0.39521367	0	-0.55540568	0	0	3.10855456	0
26.45000000	-0.16771185	19.51875926	-2.56677052	0.29963236	0	-0.19839436	8.89651191	531.05723098	-55.65700679	0.63042195	0	-0.39446825	0	-1.16804989	0	0	3.39767475	-0.00000000
26.46000000	3.98347667	53.37115077	-1.96792181	0.58628918	0	-0.39619449	11.41790896	534.17223377	-55.47748116	0.62547477	0	-0.39348339	0	-1.47439148	0	0	3.64829663	0
26.47000000	6.33067279	104.62756041	-1.38025938	0.79550062	0	-0.54813553	14.16759038	535.52243435	-55.58903782	0.62075924	0	-0.39219606	0	-0.78585625	0	0	3.91488960	0
26.48000000	0.80840148	169.14725632	-0.37350436	0.88716096	0	-0.61990220	17.10814636	534.69483490	-55.97108707	0.61622863	0	-0.39058428	0	0.81293857	0	0	4.15900935	0
26.49000000	-12.94485018	242.22902979	1.02153607	0.90631017	0	-0.63801998	20.33931314	531.45335543	-56.42663719	0.61176982	0	-0.38871238	0	2.96938891	0	0	4.30632460	0.00000000
26.50000000	-31.11595368	317.76075510	2.79521415	0.89869429	0	-0.63421991	23.80864287	525.87245564	-56.83877948	0.60751736	0	-0.38666414	0	5.30117761	0	0	4.37114488	0
26.51000000	-48.81556063	385.90989522	5.99327208	0.88803866	0	-0.62702293	27.33979426	518.11693856	-57.10608556	0.60352950	0	-0.38454033	0	7.00553238	0	0	4.34582732	0
26.52000000	-61.82328556	435.63600918	11.49925410	0.88173394	0	-0.62301426	30.76557533	508.72234639	-57.02872789	0.59979826	0	-0.38241382	0	7.33819523	0	0	4.22653560	0
26.53000000	-69.10831694	461.90999731	18.81582252	0.87765563	0	-0.62244544	34.11564444	498.24040435	-56.45733015	0.59574386	0	-0.38041651	0	6.29959964	0	0	4.10500298	0
26.54000000	-71.75707537	470.44565238	26.78267994	0.87293633	0	-0.62385248	37.49448293	487.38704010	-55.19696551	0.59099206	0	-0.37868347	0	4.42543983	0	0	4.05862307	0
26.55000000	-72.17942998	473.00646827	34.75908010	0.86770347	0	-0.62598916	40.94936840	476.83323906	-52.86986136	0.58541824	0	-0.37725252	0	2.28798546	0	0	4.14151719	-0.00000000
26.56000000	-72.82962370	479.69369039	42.47232906	0.86328698	0	-0.62810050	44.45735710	466.23567569	-49.23264383	0.57942197	0	-0.37600587	0	0.32635666	0	0	4.32056274	0
26.57000000	-74.57014413	493.05119100	48.63349019	0.86036634	0	-0.62979193	47.75300274	454.01005225	-44.57307363	0.57337445	0	-0.37476059	0	-1.00086518	0	0	4.42323158	0
26.58000000	-76.24837192	510.06571848	51.49728371	0.85830111	0	-0.63094324	50.64264831	437.91462940	-39.44478901	0.56705079	0	-0.37345522	0	-1.22534675	0	0	4.37188232	-0.00000000
26.59000000	-76.81607982	527.35717166	51.23417579	0.85595796	0	-0.63157444	52.85457114	416.01975778	-34.08895731	0.56027700	0	-0.37207936	0	-0.47668501	0	0	4.16335011	0
26.60000000	-75.41495253	541.74300097	48.68694721	0.85268537	0	-0.63180159	53.90738183	387.15080392	-28.45215157	0.55321577	0	-0.37057182	0	0.89697135	0	0	3.78385141	0.00000000
26.61000000	-72.29350556	550.71606131	45.25796733	0.84876388	0	-0.63185699	53.17862786	350.84453793	-22.79423297	0.54619560	0	-0.36911945	0	2.38099037	0	0	3.29314421	0.00000000
26.62000000	-68.38717576	552.56310981	42.31340788	0.84461880	0	-0.63200518	50.32294792	307.19552822	-17.53241390	0.53974942	0	-0.36848285	0	3.55044988	0	0	2.73380504	0
26.63000000	-64.29555179	546.87450703	40.55455431	0.84056108	0	-0.63239324	45.12157643	257.49580842	-13.17240604	0.53562307	0	-0.36963047	0	4.15037083	0	0	2.16732562	0
26.64000000	-60.24636526	535.10037030	39.91444310	0.83646726	0	-0.63297698	37.37440004	204.60752816	-10.24034462	0.53576369	0	-0.37267489	0	4.17157368	0	0	1.61999711	0.00000000
26.65000000	-56.30898466	519.94683197	39.80271291	0.83224067	0	-0.63362908	27.31233477	152.60545778	-9.05189774	0.53716707	0	-0.37467126	0	3.84704958	0	0	1.15442582	0
26.66000000	-52.59457918	504.63535484	39.64128312	0.82806419	0	-0.63422078	16.09778110	105.84847615	-9.28002532	0.52678528	0	-0.36641334	0	3.44859263	0	0	0.78566893	0
26.67000000	-49.10880656	492.24635357	39.14996621	0.82389542	0	-0.63470075	5.66675198	67.70645899	-10.02022509	0.47973792	0	-0.33076771	0	3.16513918	0	0	0.41980308	0
26.68000000	-45.89418631	484.56926032	38.37671531	0.81948800	0	-0.63508138	-2.09220757	39.61297362	-10.19846113	0.36690478	0	-0.25048716	0	3.06853320	0	0	0.09834794	0.00000000
26.69000000	-42.96521032	481.21371447	37.50743229	0.81479487	0	-0.63533450	-5.81327308	20.69281846	-8.79682711	0.20034744	0	-0.13564892	0	3.10835138	0	0	-0.04285670	0.00000000
26.70000000	-40.42883338	480.41396243	36.68967189	0.81050154	0	-0.63553564	-5.25449544	8.56425796	-5.34956771	0.06576680	0	-0.04389956	0	3.15713064	0	0	-0.05988255	0.00000000
26.71000000	-38.32172699	480.18737985	35.89317648	0.80668215	0	-0.63571774	-2.72687812	1.89344399	-1.36873290	0.00021735	0	0.00036029	0	3.19074736	0	0	-0.03700427	0.00000000
26.72000000	-36.50412443	479.62557031	35.11244802	0.80280006	0	-0.63586199	-0.71983646	-0.40504218	0.31664757	-0.01716877	0	0.01186789	0	3.23023844	0	0	-0.01405857	-0.00000000
26.73000000	-34.85015364	479.08657972	34.41035565	0.79848691	0	-0.63597232	0.23895446	-0.40850639	0.39782349	-0.01390715	0	0.00947866	0	3.26990129	0	0	-0.00158206	0.00000000
26.74000000	-33.38182202	479.32428460	33.76008236	0.79386253	0	-0.63602788	0.47813596	0.10963843	0.52401410	-0.00669095	0	0.00451650	0	3.34120552	0	0	0.00243132	0.00000000
26.75000000	-32.19681656	480.86363597	33.23383764	0.78898883	0	-0.63598051	0.42255136	0.45084904	0.31682673	-0.00172990	0	0.00114368	0	3.41033529	0	0	0.00237854	0.00000000
26.76000000	-31.26853784	483.67991569	32.84864527	0.78386232	0	-0.63584197	0.31396405	0.56875565	0.07014488	0.00036906	0	-0.00026851	0	3.43316942	0	0	0.00127755	-0.00000000
26.77000000	-30.53999296	487.28443710	32.45606880	0.77871030	0	-0.63571467	0.28330580	0.54938998	0.16646160	0.00075393	0	-0.00051821	0	3.42841228	0	0	0.00040331	0.00000000
26.78000000	-29.94089144	491.03982659	31.79080212	0.77381667	0	-0.63566895	0.31296545	0.51676685	0.16238858	0.00051085	0	-0.00034723	0	3.49139904	0	0	-0.00001157	0.00000000
26.79000000	-29.47354887	494.58425862	30.79062393	0.76908256	0	-0.63565240	0.33082725	0.52772514	0.16365580	0.00021327	0	-0.00014344	0	3.64949556	0	0	-0.00011570	0.00000000
26.80000000	-28.97971898	497.87299828	29.50408519	0.76414827	0	-0.63561134	0.32815799	0.58282885	0.24336748	0.00003732	0	-0.00002414	0	3.91474751	0	0	-0.00009028	0.00000000
26.81000000	-28.30903576	501.00568534	28.16903979	0.75896814	0	-0.63557332	0.30392405	0.66464166	0.19750109	-0.00002614	0	0.00001835	0	4.21123165	0	0	-0.00004232	-0.00000000
26.82000000	-27.40963580	503.73355276	27.11048529	0.75378695	0	-0.63563454	0.27022331	0.69086642	0.19193782	-0.00003093	0	0.00002117	0	4.41549342	0	0	-0.00001033	-0.00000000
26.83000000	-26.48800919	505.69302270	26.60518998	0.74878430	0	-0.63585234	0.24204176	0.65216526	0.20996834	-0.00001806	0	0.00001224	0	4.42881818	0	0	0.00000283	0.00000000
26.84000000	-25.72993190	506.64621175	26.68781520	0.74356523	0	-0.63623913	0.25127531	0.62916369	0.14072695	-0.00000641	0	0.00000429	0	4.23285370	0	0	0.00000501	0.00000000
26.85000000	-25.04476827	506.48562591	27.23277141	0.73778117	0	-0.63669529	0.28931897	0.63182455	0.12314242	-0.00000041	0	0.00000023	0	3.86609613	0	0	0.00000329	0.00000000
26.86000000	-24.25693524	505.45532949	28.00185999	0.73146228	0	-0.63711414	0.32227481	0.62656237	0.13893524	0.00000136	0	-0.00000094	0	3.38504735	0	0	0.00000134	0.00000000
26.87000000	-23.28834506	504.09423065	28.69010705	0.72496676	0	-0.63751684	0.31955167	0.60738352	0.15498185	0.00000121	0	-0.00000082	0	2.89511343	0	0	0.00000021	0.00000000
26.88000000	-22.20526724	502.97418148	29.21213040	0.71852911	0	-0.63790699	0.28580952	0.51003440	0.21492658	0.00000061	0	-0.00000041	0	2.45778613	0	0	-0.00000018	-0.00000000
26.89000000	-20.88765491	502.50895018	29.55392093	0.71191991	0	-0.63823464	0.25965276	0.37240752	0.23474799	0.00000018	0	-0.00000012	0	2.12387818	0	0	-0.00000020	0.00000000
26.90000000	-19.16179220	503.07299747	29.82769464	0.70490176	0	-0.63842394	0.27121054	0.27071595	0.20618109	-0.00000002	0	0.00000001	0	1.89304600	0	0	-0.00000012	0.00000000
26.91000000	-17.03588440	504.69933598	30.16477982	0.69768228	0	-0.63846865	0.28238796	0.25506666	0.16864330	-0.00000006	0	0.00000004	0	1.72400388	0	0	-0.00000004	-0.00000000
26.92000000	-14.88031663	507.07742632	30.66732783	0.69070866	0	-0.63838469	0.24081814	0.30772346	0.15577072	-0.00000005	0	0.00000003	0	1.54203110	0	0	-0.00000000	0.00000000
26.93000000	-13.01028468	509.72868756	31.25340225	0.68388115	0	-0.63808677	0.20426475	0.39391574	0.14509068	-0.00000002	0	0.00000001	0	1.34575199	0	0	0.00000001	0.00000000
26.94000000	-11.40533055	512.48464156	31.69185222	0.67686361	0	-0.63754298	0.18896757	0.55326396	0.15243888	-0.00000000	0	0.00000000	0	1.20951105	0	0	0.00000001	-0.00000000
26.95000000	-9.86029301	515.62911447	31.83984419	0.66939206	0	-0.63678380	0.18179201	0.75101971	0.15734341	0.00000000	0	-0.00000000	0	1.17280550	0	0	0.00000000	0.00000000
26.96000000	-8.28451427	519.58083922	31.66938864	0.66167221	0	-0.63590404	0.17658750	0.82680289	0.14728366	0.00000000	0	-0.00000000	0	1.25574328	0	0	0.00000000	0.00000000
26.97000000	-6.61846936	524.16556024	31.22840600	0.65399568	0	-0.63504808	0.19234542	0.70354718	0.11566028	0.00000000	0	-0.00000000	0	1.47243429	0	0	-0.00000000	-0.00000000
26.98000000	-4.72470611	528.74518357	30.69524107	0.64636732	0	-0.63430106	0.20413514	0.55291815	0.11030259	0.00000000	0	-0.00000000	0	1.75183371	0	0	-0.00000000	0.00000000
